<mxfile host="app.diagrams.net" agent="Mozilla/5.0 (Windows NT 10.0; Win64; x64; rv:140.0) Gecko/20100101 Firefox/140.0" version="28.0.6">
  <diagram name="Page-1" id="0tq5Zm-tEFlrFLTzX6lf">
    <mxGraphModel dx="1153" dy="1680" grid="1" gridSize="10" guides="1" tooltips="1" connect="1" arrows="1" fold="1" page="1" pageScale="1" pageWidth="827" pageHeight="1169" math="0" shadow="0">
      <root>
        <mxCell id="0" />
        <mxCell id="1" parent="0" />
        <mxCell id="nz8CgdrJHC7lDii3yetb-2" style="edgeStyle=orthogonalEdgeStyle;rounded=0;orthogonalLoop=1;jettySize=auto;html=1;exitX=0.5;exitY=1;exitDx=0;exitDy=0;entryX=0;entryY=0.5;entryDx=0;entryDy=0;" parent="1" source="Z-LBQhBVNGyCegQQJJvD-1" target="nz8CgdrJHC7lDii3yetb-1" edge="1">
          <mxGeometry relative="1" as="geometry" />
        </mxCell>
        <mxCell id="nz8CgdrJHC7lDii3yetb-7" style="edgeStyle=orthogonalEdgeStyle;rounded=0;orthogonalLoop=1;jettySize=auto;html=1;entryX=0;entryY=0.5;entryDx=0;entryDy=0;" parent="1" source="Z-LBQhBVNGyCegQQJJvD-1" target="nz8CgdrJHC7lDii3yetb-4" edge="1">
          <mxGeometry relative="1" as="geometry" />
        </mxCell>
        <mxCell id="nz8CgdrJHC7lDii3yetb-8" style="edgeStyle=orthogonalEdgeStyle;rounded=0;orthogonalLoop=1;jettySize=auto;html=1;entryX=0;entryY=0.5;entryDx=0;entryDy=0;" parent="1" source="Z-LBQhBVNGyCegQQJJvD-1" target="nz8CgdrJHC7lDii3yetb-5" edge="1">
          <mxGeometry relative="1" as="geometry" />
        </mxCell>
        <mxCell id="nz8CgdrJHC7lDii3yetb-9" style="edgeStyle=orthogonalEdgeStyle;rounded=0;orthogonalLoop=1;jettySize=auto;html=1;entryX=0;entryY=0.5;entryDx=0;entryDy=0;" parent="1" source="Z-LBQhBVNGyCegQQJJvD-1" target="nz8CgdrJHC7lDii3yetb-6" edge="1">
          <mxGeometry relative="1" as="geometry" />
        </mxCell>
        <mxCell id="nz8CgdrJHC7lDii3yetb-73" style="edgeStyle=orthogonalEdgeStyle;rounded=0;orthogonalLoop=1;jettySize=auto;html=1;entryX=0.5;entryY=1;entryDx=0;entryDy=0;" parent="1" source="Z-LBQhBVNGyCegQQJJvD-1" target="nz8CgdrJHC7lDii3yetb-72" edge="1">
          <mxGeometry relative="1" as="geometry" />
        </mxCell>
        <mxCell id="Z-LBQhBVNGyCegQQJJvD-1" value="&lt;div&gt;Cliente&lt;/div&gt;" style="whiteSpace=wrap;html=1;align=center;" parent="1" vertex="1">
          <mxGeometry y="258" width="100" height="40" as="geometry" />
        </mxCell>
        <mxCell id="Z-LBQhBVNGyCegQQJJvD-48" style="edgeStyle=orthogonalEdgeStyle;rounded=0;orthogonalLoop=1;jettySize=auto;html=1;entryX=0.5;entryY=0;entryDx=0;entryDy=0;" parent="1" source="Z-LBQhBVNGyCegQQJJvD-2" target="Z-LBQhBVNGyCegQQJJvD-43" edge="1">
          <mxGeometry relative="1" as="geometry" />
        </mxCell>
        <mxCell id="nz8CgdrJHC7lDii3yetb-39" style="edgeStyle=orthogonalEdgeStyle;rounded=0;orthogonalLoop=1;jettySize=auto;html=1;entryX=0;entryY=0.5;entryDx=0;entryDy=0;" parent="1" source="Z-LBQhBVNGyCegQQJJvD-2" target="nz8CgdrJHC7lDii3yetb-33" edge="1">
          <mxGeometry relative="1" as="geometry" />
        </mxCell>
        <mxCell id="nz8CgdrJHC7lDii3yetb-77" style="edgeStyle=orthogonalEdgeStyle;rounded=0;orthogonalLoop=1;jettySize=auto;html=1;entryX=0;entryY=0.5;entryDx=0;entryDy=0;" parent="1" source="Z-LBQhBVNGyCegQQJJvD-2" target="nz8CgdrJHC7lDii3yetb-76" edge="1">
          <mxGeometry relative="1" as="geometry" />
        </mxCell>
        <mxCell id="nz8CgdrJHC7lDii3yetb-92" style="edgeStyle=orthogonalEdgeStyle;rounded=0;orthogonalLoop=1;jettySize=auto;html=1;entryX=0;entryY=0.5;entryDx=0;entryDy=0;" parent="1" source="Z-LBQhBVNGyCegQQJJvD-2" target="nz8CgdrJHC7lDii3yetb-88" edge="1">
          <mxGeometry relative="1" as="geometry" />
        </mxCell>
        <mxCell id="nz8CgdrJHC7lDii3yetb-93" style="edgeStyle=orthogonalEdgeStyle;rounded=0;orthogonalLoop=1;jettySize=auto;html=1;entryX=0;entryY=0.5;entryDx=0;entryDy=0;" parent="1" source="Z-LBQhBVNGyCegQQJJvD-2" target="nz8CgdrJHC7lDii3yetb-32" edge="1">
          <mxGeometry relative="1" as="geometry" />
        </mxCell>
        <mxCell id="Z-LBQhBVNGyCegQQJJvD-2" value="&lt;div&gt;Pedido&lt;/div&gt;" style="shape=ext;margin=3;double=1;whiteSpace=wrap;html=1;align=center;" parent="1" vertex="1">
          <mxGeometry x="540" y="-50" width="100" height="40" as="geometry" />
        </mxCell>
        <mxCell id="nz8CgdrJHC7lDii3yetb-67" style="edgeStyle=orthogonalEdgeStyle;rounded=0;orthogonalLoop=1;jettySize=auto;html=1;entryX=0;entryY=0.5;entryDx=0;entryDy=0;" parent="1" source="Z-LBQhBVNGyCegQQJJvD-3" target="nz8CgdrJHC7lDii3yetb-63" edge="1">
          <mxGeometry relative="1" as="geometry" />
        </mxCell>
        <mxCell id="nz8CgdrJHC7lDii3yetb-68" style="edgeStyle=orthogonalEdgeStyle;rounded=0;orthogonalLoop=1;jettySize=auto;html=1;entryX=0;entryY=0.5;entryDx=0;entryDy=0;" parent="1" source="Z-LBQhBVNGyCegQQJJvD-3" target="nz8CgdrJHC7lDii3yetb-62" edge="1">
          <mxGeometry relative="1" as="geometry" />
        </mxCell>
        <mxCell id="nz8CgdrJHC7lDii3yetb-69" style="edgeStyle=orthogonalEdgeStyle;rounded=0;orthogonalLoop=1;jettySize=auto;html=1;entryX=0;entryY=0.5;entryDx=0;entryDy=0;" parent="1" source="Z-LBQhBVNGyCegQQJJvD-3" target="nz8CgdrJHC7lDii3yetb-66" edge="1">
          <mxGeometry relative="1" as="geometry" />
        </mxCell>
        <mxCell id="nz8CgdrJHC7lDii3yetb-75" style="edgeStyle=orthogonalEdgeStyle;rounded=0;orthogonalLoop=1;jettySize=auto;html=1;entryX=0;entryY=0.5;entryDx=0;entryDy=0;" parent="1" source="Z-LBQhBVNGyCegQQJJvD-3" target="nz8CgdrJHC7lDii3yetb-74" edge="1">
          <mxGeometry relative="1" as="geometry" />
        </mxCell>
        <mxCell id="Z-LBQhBVNGyCegQQJJvD-3" value="&lt;div&gt;Editorial&lt;/div&gt;" style="whiteSpace=wrap;html=1;align=center;" parent="1" vertex="1">
          <mxGeometry x="540" y="700" width="100" height="40" as="geometry" />
        </mxCell>
        <mxCell id="Z-LBQhBVNGyCegQQJJvD-21" style="edgeStyle=orthogonalEdgeStyle;rounded=0;orthogonalLoop=1;jettySize=auto;html=1;" parent="1" source="Z-LBQhBVNGyCegQQJJvD-4" target="Z-LBQhBVNGyCegQQJJvD-19" edge="1">
          <mxGeometry relative="1" as="geometry" />
        </mxCell>
        <mxCell id="Z-LBQhBVNGyCegQQJJvD-41" style="edgeStyle=orthogonalEdgeStyle;rounded=0;orthogonalLoop=1;jettySize=auto;html=1;entryX=0;entryY=0.5;entryDx=0;entryDy=0;" parent="1" source="Z-LBQhBVNGyCegQQJJvD-4" target="Z-LBQhBVNGyCegQQJJvD-31" edge="1">
          <mxGeometry relative="1" as="geometry" />
        </mxCell>
        <mxCell id="nz8CgdrJHC7lDii3yetb-55" style="edgeStyle=orthogonalEdgeStyle;rounded=0;orthogonalLoop=1;jettySize=auto;html=1;entryX=1;entryY=0.5;entryDx=0;entryDy=0;" parent="1" source="Z-LBQhBVNGyCegQQJJvD-4" target="nz8CgdrJHC7lDii3yetb-48" edge="1">
          <mxGeometry relative="1" as="geometry" />
        </mxCell>
        <mxCell id="nz8CgdrJHC7lDii3yetb-56" style="edgeStyle=orthogonalEdgeStyle;rounded=0;orthogonalLoop=1;jettySize=auto;html=1;entryX=1;entryY=0.5;entryDx=0;entryDy=0;" parent="1" source="Z-LBQhBVNGyCegQQJJvD-4" target="nz8CgdrJHC7lDii3yetb-47" edge="1">
          <mxGeometry relative="1" as="geometry" />
        </mxCell>
        <mxCell id="nz8CgdrJHC7lDii3yetb-57" style="edgeStyle=orthogonalEdgeStyle;rounded=0;orthogonalLoop=1;jettySize=auto;html=1;entryX=1;entryY=0.5;entryDx=0;entryDy=0;" parent="1" source="Z-LBQhBVNGyCegQQJJvD-4" target="nz8CgdrJHC7lDii3yetb-45" edge="1">
          <mxGeometry relative="1" as="geometry" />
        </mxCell>
        <mxCell id="nz8CgdrJHC7lDii3yetb-58" style="edgeStyle=orthogonalEdgeStyle;rounded=0;orthogonalLoop=1;jettySize=auto;html=1;entryX=1;entryY=0.5;entryDx=0;entryDy=0;" parent="1" source="Z-LBQhBVNGyCegQQJJvD-4" target="nz8CgdrJHC7lDii3yetb-43" edge="1">
          <mxGeometry relative="1" as="geometry" />
        </mxCell>
        <mxCell id="nz8CgdrJHC7lDii3yetb-59" style="edgeStyle=orthogonalEdgeStyle;rounded=0;orthogonalLoop=1;jettySize=auto;html=1;entryX=1;entryY=0.5;entryDx=0;entryDy=0;" parent="1" source="Z-LBQhBVNGyCegQQJJvD-4" target="nz8CgdrJHC7lDii3yetb-41" edge="1">
          <mxGeometry relative="1" as="geometry" />
        </mxCell>
        <mxCell id="nz8CgdrJHC7lDii3yetb-60" style="edgeStyle=orthogonalEdgeStyle;rounded=0;orthogonalLoop=1;jettySize=auto;html=1;entryX=1;entryY=0.5;entryDx=0;entryDy=0;" parent="1" source="Z-LBQhBVNGyCegQQJJvD-4" target="nz8CgdrJHC7lDii3yetb-44" edge="1">
          <mxGeometry relative="1" as="geometry" />
        </mxCell>
        <mxCell id="nz8CgdrJHC7lDii3yetb-61" style="edgeStyle=orthogonalEdgeStyle;rounded=0;orthogonalLoop=1;jettySize=auto;html=1;entryX=1;entryY=0.5;entryDx=0;entryDy=0;" parent="1" source="Z-LBQhBVNGyCegQQJJvD-4" target="nz8CgdrJHC7lDii3yetb-42" edge="1">
          <mxGeometry relative="1" as="geometry" />
        </mxCell>
        <mxCell id="nz8CgdrJHC7lDii3yetb-86" style="edgeStyle=orthogonalEdgeStyle;rounded=0;orthogonalLoop=1;jettySize=auto;html=1;entryX=0.5;entryY=0;entryDx=0;entryDy=0;exitX=0;exitY=0.5;exitDx=0;exitDy=0;" parent="1" source="Z-LBQhBVNGyCegQQJJvD-4" target="nz8CgdrJHC7lDii3yetb-78" edge="1">
          <mxGeometry relative="1" as="geometry" />
        </mxCell>
        <mxCell id="nz8CgdrJHC7lDii3yetb-101" style="edgeStyle=orthogonalEdgeStyle;rounded=0;orthogonalLoop=1;jettySize=auto;html=1;entryX=1;entryY=0.5;entryDx=0;entryDy=0;" parent="1" source="Z-LBQhBVNGyCegQQJJvD-4" target="nz8CgdrJHC7lDii3yetb-100" edge="1">
          <mxGeometry relative="1" as="geometry" />
        </mxCell>
        <mxCell id="Z-LBQhBVNGyCegQQJJvD-4" value="Libro" style="shape=ext;margin=3;double=1;whiteSpace=wrap;html=1;align=center;" parent="1" vertex="1">
          <mxGeometry x="540" y="310" width="100" height="40" as="geometry" />
        </mxCell>
        <mxCell id="nz8CgdrJHC7lDii3yetb-38" style="edgeStyle=orthogonalEdgeStyle;rounded=0;orthogonalLoop=1;jettySize=auto;html=1;entryX=0;entryY=0.5;entryDx=0;entryDy=0;" parent="1" source="Z-LBQhBVNGyCegQQJJvD-5" target="nz8CgdrJHC7lDii3yetb-36" edge="1">
          <mxGeometry relative="1" as="geometry" />
        </mxCell>
        <mxCell id="nz8CgdrJHC7lDii3yetb-104" style="edgeStyle=orthogonalEdgeStyle;rounded=0;orthogonalLoop=1;jettySize=auto;html=1;entryX=0;entryY=0.5;entryDx=0;entryDy=0;" parent="1" source="Z-LBQhBVNGyCegQQJJvD-5" target="nz8CgdrJHC7lDii3yetb-102" edge="1">
          <mxGeometry relative="1" as="geometry" />
        </mxCell>
        <mxCell id="nz8CgdrJHC7lDii3yetb-105" style="edgeStyle=orthogonalEdgeStyle;rounded=0;orthogonalLoop=1;jettySize=auto;html=1;entryX=0;entryY=0.5;entryDx=0;entryDy=0;" parent="1" source="Z-LBQhBVNGyCegQQJJvD-5" target="nz8CgdrJHC7lDii3yetb-103" edge="1">
          <mxGeometry relative="1" as="geometry" />
        </mxCell>
        <mxCell id="Z-LBQhBVNGyCegQQJJvD-5" value="Inventario" style="shape=ext;margin=3;double=1;whiteSpace=wrap;html=1;align=center;" parent="1" vertex="1">
          <mxGeometry x="930" y="310" width="100" height="40" as="geometry" />
        </mxCell>
        <mxCell id="Z-LBQhBVNGyCegQQJJvD-8" style="edgeStyle=orthogonalEdgeStyle;rounded=0;orthogonalLoop=1;jettySize=auto;html=1;exitX=1;exitY=0.5;exitDx=0;exitDy=0;" parent="1" source="Z-LBQhBVNGyCegQQJJvD-6" target="Z-LBQhBVNGyCegQQJJvD-2" edge="1">
          <mxGeometry relative="1" as="geometry" />
        </mxCell>
        <mxCell id="Z-LBQhBVNGyCegQQJJvD-6" value="Compra" style="shape=rhombus;perimeter=rhombusPerimeter;whiteSpace=wrap;html=1;align=center;" parent="1" vertex="1">
          <mxGeometry x="288" y="-60" width="120" height="60" as="geometry" />
        </mxCell>
        <mxCell id="Z-LBQhBVNGyCegQQJJvD-7" style="edgeStyle=orthogonalEdgeStyle;rounded=0;orthogonalLoop=1;jettySize=auto;html=1;entryX=0;entryY=0.5;entryDx=0;entryDy=0;" parent="1" source="Z-LBQhBVNGyCegQQJJvD-1" target="Z-LBQhBVNGyCegQQJJvD-6" edge="1">
          <mxGeometry relative="1" as="geometry">
            <Array as="points">
              <mxPoint x="50" y="-30" />
            </Array>
          </mxGeometry>
        </mxCell>
        <mxCell id="Z-LBQhBVNGyCegQQJJvD-9" value="(1, 1)" style="text;html=1;align=center;verticalAlign=middle;whiteSpace=wrap;rounded=0;" parent="1" vertex="1">
          <mxGeometry x="60" y="218" width="60" height="30" as="geometry" />
        </mxCell>
        <mxCell id="Z-LBQhBVNGyCegQQJJvD-11" value="(0, N)" style="text;html=1;align=center;verticalAlign=middle;whiteSpace=wrap;rounded=0;" parent="1" vertex="1">
          <mxGeometry x="400" y="-60" width="60" height="30" as="geometry" />
        </mxCell>
        <mxCell id="Z-LBQhBVNGyCegQQJJvD-17" value="(1, 1)" style="text;html=1;align=center;verticalAlign=middle;whiteSpace=wrap;rounded=0;" parent="1" vertex="1">
          <mxGeometry x="590" y="-10" width="60" height="30" as="geometry" />
        </mxCell>
        <mxCell id="Z-LBQhBVNGyCegQQJJvD-18" value="(1, 1)" style="text;html=1;align=center;verticalAlign=middle;whiteSpace=wrap;rounded=0;" parent="1" vertex="1">
          <mxGeometry x="580" y="270" width="60" height="30" as="geometry" />
        </mxCell>
        <mxCell id="Z-LBQhBVNGyCegQQJJvD-25" style="edgeStyle=orthogonalEdgeStyle;rounded=0;orthogonalLoop=1;jettySize=auto;html=1;entryX=0.5;entryY=0;entryDx=0;entryDy=0;" parent="1" source="Z-LBQhBVNGyCegQQJJvD-19" target="Z-LBQhBVNGyCegQQJJvD-3" edge="1">
          <mxGeometry relative="1" as="geometry" />
        </mxCell>
        <mxCell id="Z-LBQhBVNGyCegQQJJvD-19" value="Pertenece" style="shape=rhombus;perimeter=rhombusPerimeter;whiteSpace=wrap;html=1;align=center;" parent="1" vertex="1">
          <mxGeometry x="530" y="541" width="120" height="60" as="geometry" />
        </mxCell>
        <mxCell id="Z-LBQhBVNGyCegQQJJvD-23" value="(1, N)" style="text;html=1;align=center;verticalAlign=middle;whiteSpace=wrap;rounded=0;" parent="1" vertex="1">
          <mxGeometry x="580" y="350" width="60" height="30" as="geometry" />
        </mxCell>
        <mxCell id="Z-LBQhBVNGyCegQQJJvD-24" value="(1, 1)" style="text;html=1;align=center;verticalAlign=middle;whiteSpace=wrap;rounded=0;" parent="1" vertex="1">
          <mxGeometry x="590" y="670" width="60" height="30" as="geometry" />
        </mxCell>
        <mxCell id="nz8CgdrJHC7lDii3yetb-51" style="edgeStyle=orthogonalEdgeStyle;rounded=0;orthogonalLoop=1;jettySize=auto;html=1;entryX=0;entryY=0.5;entryDx=0;entryDy=0;" parent="1" source="Z-LBQhBVNGyCegQQJJvD-31" target="Z-LBQhBVNGyCegQQJJvD-5" edge="1">
          <mxGeometry relative="1" as="geometry" />
        </mxCell>
        <mxCell id="Z-LBQhBVNGyCegQQJJvD-31" value="Existe" style="shape=rhombus;perimeter=rhombusPerimeter;whiteSpace=wrap;html=1;align=center;" parent="1" vertex="1">
          <mxGeometry x="710" y="300" width="120" height="60" as="geometry" />
        </mxCell>
        <mxCell id="Z-LBQhBVNGyCegQQJJvD-38" value="(0, 1)" style="text;html=1;align=center;verticalAlign=middle;whiteSpace=wrap;rounded=0;" parent="1" vertex="1">
          <mxGeometry x="870" y="330" width="60" height="30" as="geometry" />
        </mxCell>
        <mxCell id="Z-LBQhBVNGyCegQQJJvD-39" value="(1, N)" style="text;html=1;align=center;verticalAlign=middle;whiteSpace=wrap;rounded=0;" parent="1" vertex="1">
          <mxGeometry x="630" y="330" width="60" height="30" as="geometry" />
        </mxCell>
        <mxCell id="Z-LBQhBVNGyCegQQJJvD-49" style="edgeStyle=orthogonalEdgeStyle;rounded=0;orthogonalLoop=1;jettySize=auto;html=1;" parent="1" source="Z-LBQhBVNGyCegQQJJvD-43" target="Z-LBQhBVNGyCegQQJJvD-4" edge="1">
          <mxGeometry relative="1" as="geometry" />
        </mxCell>
        <mxCell id="nz8CgdrJHC7lDii3yetb-97" style="edgeStyle=orthogonalEdgeStyle;rounded=0;orthogonalLoop=1;jettySize=auto;html=1;entryX=0;entryY=0.5;entryDx=0;entryDy=0;" parent="1" source="Z-LBQhBVNGyCegQQJJvD-43" target="nz8CgdrJHC7lDii3yetb-94" edge="1">
          <mxGeometry relative="1" as="geometry" />
        </mxCell>
        <mxCell id="nz8CgdrJHC7lDii3yetb-98" style="edgeStyle=orthogonalEdgeStyle;rounded=0;orthogonalLoop=1;jettySize=auto;html=1;entryX=0;entryY=0.5;entryDx=0;entryDy=0;" parent="1" source="Z-LBQhBVNGyCegQQJJvD-43" target="nz8CgdrJHC7lDii3yetb-96" edge="1">
          <mxGeometry relative="1" as="geometry" />
        </mxCell>
        <mxCell id="nz8CgdrJHC7lDii3yetb-99" style="edgeStyle=orthogonalEdgeStyle;rounded=0;orthogonalLoop=1;jettySize=auto;html=1;entryX=0;entryY=0.5;entryDx=0;entryDy=0;" parent="1" source="Z-LBQhBVNGyCegQQJJvD-43" target="nz8CgdrJHC7lDii3yetb-95" edge="1">
          <mxGeometry relative="1" as="geometry" />
        </mxCell>
        <mxCell id="nz8CgdrJHC7lDii3yetb-107" style="edgeStyle=orthogonalEdgeStyle;rounded=0;orthogonalLoop=1;jettySize=auto;html=1;entryX=0;entryY=0.5;entryDx=0;entryDy=0;" parent="1" source="Z-LBQhBVNGyCegQQJJvD-43" target="nz8CgdrJHC7lDii3yetb-106" edge="1">
          <mxGeometry relative="1" as="geometry" />
        </mxCell>
        <mxCell id="Z-LBQhBVNGyCegQQJJvD-43" value="Contiene" style="shape=associativeEntity;whiteSpace=wrap;html=1;align=center;" parent="1" vertex="1">
          <mxGeometry x="520" y="125" width="140" height="60" as="geometry" />
        </mxCell>
        <mxCell id="Z-LBQhBVNGyCegQQJJvD-44" value="&lt;div&gt;Item&lt;/div&gt;" style="text;html=1;align=center;verticalAlign=middle;whiteSpace=wrap;rounded=0;" parent="1" vertex="1">
          <mxGeometry x="508" y="118" width="60" height="30" as="geometry" />
        </mxCell>
        <mxCell id="Z-LBQhBVNGyCegQQJJvD-45" value="(1, N)" style="text;html=1;align=center;verticalAlign=middle;whiteSpace=wrap;rounded=0;" parent="1" vertex="1">
          <mxGeometry x="590" y="88" width="60" height="30" as="geometry" />
        </mxCell>
        <mxCell id="Z-LBQhBVNGyCegQQJJvD-46" value="(1, N)" style="text;html=1;align=center;verticalAlign=middle;whiteSpace=wrap;rounded=0;" parent="1" vertex="1">
          <mxGeometry x="590" y="188" width="60" height="30" as="geometry" />
        </mxCell>
        <mxCell id="nz8CgdrJHC7lDii3yetb-1" value="Nombre" style="ellipse;whiteSpace=wrap;html=1;align=center;" parent="1" vertex="1">
          <mxGeometry x="88" y="641" width="100" height="40" as="geometry" />
        </mxCell>
        <mxCell id="nz8CgdrJHC7lDii3yetb-12" style="edgeStyle=orthogonalEdgeStyle;rounded=0;orthogonalLoop=1;jettySize=auto;html=1;entryX=0;entryY=0.5;entryDx=0;entryDy=0;" parent="1" source="nz8CgdrJHC7lDii3yetb-4" target="nz8CgdrJHC7lDii3yetb-10" edge="1">
          <mxGeometry relative="1" as="geometry" />
        </mxCell>
        <mxCell id="nz8CgdrJHC7lDii3yetb-4" value="&lt;div&gt;Direccion&lt;/div&gt;&lt;div&gt;&lt;br&gt;&lt;/div&gt;" style="ellipse;whiteSpace=wrap;html=1;align=center;" parent="1" vertex="1">
          <mxGeometry x="77.5" y="820" width="100" height="40" as="geometry" />
        </mxCell>
        <mxCell id="nz8CgdrJHC7lDii3yetb-5" value="&lt;div&gt;Telefono&lt;/div&gt;" style="ellipse;whiteSpace=wrap;html=1;align=center;" parent="1" vertex="1">
          <mxGeometry x="88" y="700" width="100" height="40" as="geometry" />
        </mxCell>
        <mxCell id="nz8CgdrJHC7lDii3yetb-6" value="E-mail" style="ellipse;whiteSpace=wrap;html=1;align=center;" parent="1" vertex="1">
          <mxGeometry x="88" y="761" width="100" height="40" as="geometry" />
        </mxCell>
        <mxCell id="nz8CgdrJHC7lDii3yetb-10" value="Calle" style="ellipse;whiteSpace=wrap;html=1;align=center;dashed=1;" parent="1" vertex="1">
          <mxGeometry x="228" y="820" width="100" height="40" as="geometry" />
        </mxCell>
        <mxCell id="nz8CgdrJHC7lDii3yetb-11" value="Departamento" style="ellipse;whiteSpace=wrap;html=1;align=center;dashed=1;" parent="1" vertex="1">
          <mxGeometry x="228" y="900" width="100" height="40" as="geometry" />
        </mxCell>
        <mxCell id="nz8CgdrJHC7lDii3yetb-13" style="edgeStyle=orthogonalEdgeStyle;rounded=0;orthogonalLoop=1;jettySize=auto;html=1;entryX=0;entryY=0.5;entryDx=0;entryDy=0;" parent="1" source="nz8CgdrJHC7lDii3yetb-4" target="nz8CgdrJHC7lDii3yetb-11" edge="1">
          <mxGeometry relative="1" as="geometry" />
        </mxCell>
        <mxCell id="nz8CgdrJHC7lDii3yetb-24" style="edgeStyle=orthogonalEdgeStyle;rounded=0;orthogonalLoop=1;jettySize=auto;html=1;" parent="1" source="nz8CgdrJHC7lDii3yetb-15" target="nz8CgdrJHC7lDii3yetb-17" edge="1">
          <mxGeometry relative="1" as="geometry" />
        </mxCell>
        <mxCell id="nz8CgdrJHC7lDii3yetb-25" style="edgeStyle=orthogonalEdgeStyle;rounded=0;orthogonalLoop=1;jettySize=auto;html=1;entryX=0.5;entryY=0;entryDx=0;entryDy=0;" parent="1" source="nz8CgdrJHC7lDii3yetb-15" target="nz8CgdrJHC7lDii3yetb-18" edge="1">
          <mxGeometry relative="1" as="geometry" />
        </mxCell>
        <mxCell id="nz8CgdrJHC7lDii3yetb-15" value="ID" style="strokeWidth=2;html=1;shape=mxgraph.flowchart.extract_or_measurement;whiteSpace=wrap;" parent="1" vertex="1">
          <mxGeometry x="155" y="308" width="95" height="50" as="geometry" />
        </mxCell>
        <mxCell id="nz8CgdrJHC7lDii3yetb-16" style="edgeStyle=orthogonalEdgeStyle;rounded=0;orthogonalLoop=1;jettySize=auto;html=1;entryX=0.5;entryY=0;entryDx=0;entryDy=0;entryPerimeter=0;" parent="1" source="Z-LBQhBVNGyCegQQJJvD-1" target="nz8CgdrJHC7lDii3yetb-15" edge="1">
          <mxGeometry relative="1" as="geometry" />
        </mxCell>
        <mxCell id="nz8CgdrJHC7lDii3yetb-27" style="edgeStyle=orthogonalEdgeStyle;rounded=0;orthogonalLoop=1;jettySize=auto;html=1;entryX=0;entryY=0.5;entryDx=0;entryDy=0;" parent="1" source="nz8CgdrJHC7lDii3yetb-17" target="nz8CgdrJHC7lDii3yetb-22" edge="1">
          <mxGeometry relative="1" as="geometry" />
        </mxCell>
        <mxCell id="nz8CgdrJHC7lDii3yetb-28" style="edgeStyle=orthogonalEdgeStyle;rounded=0;orthogonalLoop=1;jettySize=auto;html=1;entryX=0;entryY=0.5;entryDx=0;entryDy=0;" parent="1" source="nz8CgdrJHC7lDii3yetb-17" target="nz8CgdrJHC7lDii3yetb-19" edge="1">
          <mxGeometry relative="1" as="geometry" />
        </mxCell>
        <mxCell id="nz8CgdrJHC7lDii3yetb-17" value="Persona_fisica" style="rounded=1;arcSize=10;whiteSpace=wrap;html=1;align=center;" parent="1" vertex="1">
          <mxGeometry x="60" y="420" width="100" height="40" as="geometry" />
        </mxCell>
        <mxCell id="nz8CgdrJHC7lDii3yetb-30" style="edgeStyle=orthogonalEdgeStyle;rounded=0;orthogonalLoop=1;jettySize=auto;html=1;entryX=0;entryY=0.5;entryDx=0;entryDy=0;" parent="1" source="nz8CgdrJHC7lDii3yetb-18" target="nz8CgdrJHC7lDii3yetb-21" edge="1">
          <mxGeometry relative="1" as="geometry" />
        </mxCell>
        <mxCell id="nz8CgdrJHC7lDii3yetb-31" style="edgeStyle=orthogonalEdgeStyle;rounded=0;orthogonalLoop=1;jettySize=auto;html=1;entryX=0;entryY=0.5;entryDx=0;entryDy=0;" parent="1" source="nz8CgdrJHC7lDii3yetb-18" target="nz8CgdrJHC7lDii3yetb-20" edge="1">
          <mxGeometry relative="1" as="geometry" />
        </mxCell>
        <mxCell id="nz8CgdrJHC7lDii3yetb-18" value="Persona_juridica" style="rounded=1;arcSize=10;whiteSpace=wrap;html=1;align=center;" parent="1" vertex="1">
          <mxGeometry x="228" y="420" width="100" height="40" as="geometry" />
        </mxCell>
        <mxCell id="nz8CgdrJHC7lDii3yetb-19" value="cuil" style="ellipse;whiteSpace=wrap;html=1;align=center;" parent="1" vertex="1">
          <mxGeometry x="140" y="541" width="100" height="40" as="geometry" />
        </mxCell>
        <mxCell id="nz8CgdrJHC7lDii3yetb-20" value="cuit" style="ellipse;whiteSpace=wrap;html=1;align=center;" parent="1" vertex="1">
          <mxGeometry x="314" y="541" width="100" height="40" as="geometry" />
        </mxCell>
        <mxCell id="nz8CgdrJHC7lDii3yetb-21" value="numero_personeria_juridica" style="ellipse;whiteSpace=wrap;html=1;align=center;" parent="1" vertex="1">
          <mxGeometry x="308" y="481" width="172" height="40" as="geometry" />
        </mxCell>
        <mxCell id="nz8CgdrJHC7lDii3yetb-22" value="dni" style="ellipse;whiteSpace=wrap;html=1;align=center;" parent="1" vertex="1">
          <mxGeometry x="140" y="481" width="100" height="40" as="geometry" />
        </mxCell>
        <mxCell id="nz8CgdrJHC7lDii3yetb-32" value="Fecha" style="ellipse;whiteSpace=wrap;html=1;align=center;" parent="1" vertex="1">
          <mxGeometry x="720" y="-60" width="100" height="40" as="geometry" />
        </mxCell>
        <mxCell id="nz8CgdrJHC7lDii3yetb-33" value="Valor" style="ellipse;whiteSpace=wrap;html=1;align=center;" parent="1" vertex="1">
          <mxGeometry x="720" y="-10" width="100" height="40" as="geometry" />
        </mxCell>
        <mxCell id="nz8CgdrJHC7lDii3yetb-36" value="Cantidad" style="ellipse;whiteSpace=wrap;html=1;align=center;" parent="1" vertex="1">
          <mxGeometry x="1010" y="370" width="100" height="40" as="geometry" />
        </mxCell>
        <mxCell id="nz8CgdrJHC7lDii3yetb-41" value="&lt;div&gt;ISBN&lt;/div&gt;" style="ellipse;whiteSpace=wrap;html=1;align=center;" parent="1" vertex="1">
          <mxGeometry x="360" y="163" width="100" height="40" as="geometry" />
        </mxCell>
        <mxCell id="nz8CgdrJHC7lDii3yetb-42" value="Titulo" style="ellipse;whiteSpace=wrap;html=1;align=center;" parent="1" vertex="1">
          <mxGeometry x="360" y="63" width="100" height="40" as="geometry" />
        </mxCell>
        <mxCell id="nz8CgdrJHC7lDii3yetb-43" value="Año_publicacion" style="ellipse;whiteSpace=wrap;html=1;align=center;" parent="1" vertex="1">
          <mxGeometry x="360" y="211" width="100" height="40" as="geometry" />
        </mxCell>
        <mxCell id="nz8CgdrJHC7lDii3yetb-44" value="Categoria" style="ellipse;whiteSpace=wrap;html=1;align=center;" parent="1" vertex="1">
          <mxGeometry x="360" y="111" width="100" height="40" as="geometry" />
        </mxCell>
        <mxCell id="nz8CgdrJHC7lDii3yetb-45" value="Editorial" style="ellipse;whiteSpace=wrap;html=1;align=center;" parent="1" vertex="1">
          <mxGeometry x="360" y="263" width="100" height="40" as="geometry" />
        </mxCell>
        <mxCell id="nz8CgdrJHC7lDii3yetb-47" value="Valor" style="ellipse;whiteSpace=wrap;html=1;align=center;" parent="1" vertex="1">
          <mxGeometry x="360" y="313" width="100" height="40" as="geometry" />
        </mxCell>
        <mxCell id="nz8CgdrJHC7lDii3yetb-48" value="Autor/a" style="ellipse;whiteSpace=wrap;html=1;align=center;" parent="1" vertex="1">
          <mxGeometry x="360" y="363" width="100" height="40" as="geometry" />
        </mxCell>
        <mxCell id="nz8CgdrJHC7lDii3yetb-62" value="Nombre_de_contacto" style="ellipse;whiteSpace=wrap;html=1;align=center;" parent="1" vertex="1">
          <mxGeometry x="630" y="860" width="140" height="40" as="geometry" />
        </mxCell>
        <mxCell id="nz8CgdrJHC7lDii3yetb-70" style="edgeStyle=orthogonalEdgeStyle;rounded=0;orthogonalLoop=1;jettySize=auto;html=1;entryX=0;entryY=0.5;entryDx=0;entryDy=0;" parent="1" source="nz8CgdrJHC7lDii3yetb-63" target="nz8CgdrJHC7lDii3yetb-64" edge="1">
          <mxGeometry relative="1" as="geometry" />
        </mxCell>
        <mxCell id="nz8CgdrJHC7lDii3yetb-71" style="edgeStyle=orthogonalEdgeStyle;rounded=0;orthogonalLoop=1;jettySize=auto;html=1;entryX=0;entryY=0.5;entryDx=0;entryDy=0;" parent="1" source="nz8CgdrJHC7lDii3yetb-63" target="nz8CgdrJHC7lDii3yetb-65" edge="1">
          <mxGeometry relative="1" as="geometry" />
        </mxCell>
        <mxCell id="nz8CgdrJHC7lDii3yetb-63" value="&lt;div&gt;Telefono&lt;/div&gt;" style="ellipse;whiteSpace=wrap;html=1;align=center;" parent="1" vertex="1">
          <mxGeometry x="620" y="790" width="100" height="40" as="geometry" />
        </mxCell>
        <mxCell id="nz8CgdrJHC7lDii3yetb-64" value="Telefono_1" style="ellipse;whiteSpace=wrap;html=1;align=center;dashed=1;" parent="1" vertex="1">
          <mxGeometry x="850" y="790" width="100" height="40" as="geometry" />
        </mxCell>
        <mxCell id="nz8CgdrJHC7lDii3yetb-65" value="Telefono_2" style="ellipse;whiteSpace=wrap;html=1;align=center;dashed=1;" parent="1" vertex="1">
          <mxGeometry x="850" y="847" width="100" height="40" as="geometry" />
        </mxCell>
        <mxCell id="nz8CgdrJHC7lDii3yetb-66" value="E-mail" style="ellipse;whiteSpace=wrap;html=1;align=center;" parent="1" vertex="1">
          <mxGeometry x="630" y="927" width="100" height="40" as="geometry" />
        </mxCell>
        <mxCell id="nz8CgdrJHC7lDii3yetb-72" value="Codigo_cliente" style="ellipse;whiteSpace=wrap;html=1;align=center;fontStyle=4;" parent="1" vertex="1">
          <mxGeometry x="177.5" y="188" width="100" height="40" as="geometry" />
        </mxCell>
        <mxCell id="nz8CgdrJHC7lDii3yetb-74" value="&lt;div&gt;Codigo_editorial&lt;/div&gt;" style="ellipse;whiteSpace=wrap;html=1;align=center;fontStyle=4;" parent="1" vertex="1">
          <mxGeometry x="720" y="700" width="100" height="40" as="geometry" />
        </mxCell>
        <mxCell id="nz8CgdrJHC7lDii3yetb-76" value="Codigo_cliente" style="ellipse;whiteSpace=wrap;html=1;align=center;fontStyle=4;" parent="1" vertex="1">
          <mxGeometry x="720" y="-160" width="100" height="40" as="geometry" />
        </mxCell>
        <mxCell id="nz8CgdrJHC7lDii3yetb-78" value="&lt;div&gt;Codigo_editorial&lt;/div&gt;" style="ellipse;whiteSpace=wrap;html=1;align=center;fontStyle=4;" parent="1" vertex="1">
          <mxGeometry x="468" y="420" width="100" height="40" as="geometry" />
        </mxCell>
        <mxCell id="nz8CgdrJHC7lDii3yetb-88" value="Codigo_pedido" style="ellipse;whiteSpace=wrap;html=1;align=center;fontStyle=4;" parent="1" vertex="1">
          <mxGeometry x="720" y="-110" width="100" height="40" as="geometry" />
        </mxCell>
        <mxCell id="nz8CgdrJHC7lDii3yetb-94" value="Cantidad" style="ellipse;whiteSpace=wrap;html=1;align=center;" parent="1" vertex="1">
          <mxGeometry x="710" y="113" width="100" height="40" as="geometry" />
        </mxCell>
        <mxCell id="nz8CgdrJHC7lDii3yetb-95" value="Valor" style="ellipse;whiteSpace=wrap;html=1;align=center;" parent="1" vertex="1">
          <mxGeometry x="710" y="170" width="100" height="40" as="geometry" />
        </mxCell>
        <mxCell id="nz8CgdrJHC7lDii3yetb-96" value="Codigo_pedido" style="ellipse;whiteSpace=wrap;html=1;align=center;fontStyle=4;" parent="1" vertex="1">
          <mxGeometry x="710" y="60" width="100" height="40" as="geometry" />
        </mxCell>
        <mxCell id="nz8CgdrJHC7lDii3yetb-100" value="&lt;div&gt;Codigo_librol&lt;/div&gt;" style="ellipse;whiteSpace=wrap;html=1;align=center;fontStyle=4;" parent="1" vertex="1">
          <mxGeometry x="360" y="10" width="100" height="40" as="geometry" />
        </mxCell>
        <mxCell id="nz8CgdrJHC7lDii3yetb-102" value="&lt;div&gt;Codigo_libro&lt;/div&gt;" style="ellipse;whiteSpace=wrap;html=1;align=center;fontStyle=4;" parent="1" vertex="1">
          <mxGeometry x="1020" y="420" width="100" height="40" as="geometry" />
        </mxCell>
        <mxCell id="nz8CgdrJHC7lDii3yetb-103" value="&lt;div&gt;Codigo_editorial&lt;/div&gt;" style="ellipse;whiteSpace=wrap;html=1;align=center;fontStyle=4;" parent="1" vertex="1">
          <mxGeometry x="1020" y="470" width="100" height="40" as="geometry" />
        </mxCell>
        <mxCell id="nz8CgdrJHC7lDii3yetb-106" value="&lt;div&gt;Codigo_libro&lt;/div&gt;" style="ellipse;whiteSpace=wrap;html=1;align=center;fontStyle=4;" parent="1" vertex="1">
          <mxGeometry x="710" y="223" width="100" height="40" as="geometry" />
        </mxCell>
      </root>
    </mxGraphModel>
  </diagram>
</mxfile>
